# xmcd
#
# Track frame offsets: 
#        150
#        6088
#        23689
#        44957
#        64394
#        74838
#        94103
#        109356
#        130449
#        151380
#        168976
#        169801
#        185763
#        201993
#        216675
#        235221
#
# Disc length: 3365 seconds
#
# Revision: 0
# Processed by: cddbd v1.5.2PL0 Copyright (c) Steve Scherf et al.
# Submitted via: ExactAudioCopy v0.99pb4
#
DISCID=000d2310
DTITLE=Dice and K9 Mobb Starr - Time Space Rhythm Starrs
DYEAR=2008
DGENRE=Hip-Hop
TTITLE0=Time Space Rhythm Starrs
TTITLE1=Rocket Science
TTITLE2=Push Button
TTITLE3=My Digital Love
TTITLE4=Supernova
TTITLE5=Eargasmic
TTITLE6=Pump (Feat. Gloc-9)
TTITLE7=Fresh (Feat. Aero)
TTITLE8=Make You Feel (Feat. Loonie)
TTITLE9=Just Us
TTITLE10=Warning
TTITLE11=Rollin'
TTITLE12=Scream
TTITLE13=Stellar
TTITLE14=The Journey
TTITLE15=Rendezvous
EXTD=
EXTT0=
EXTT1=
EXTT2=
EXTT3=
EXTT4=
EXTT5=
EXTT6=
EXTT7=
EXTT8=
EXTT9=
EXTT10=
EXTT11=
EXTT12=
EXTT13=
EXTT14=
EXTT15=
PLAYORDER=
